<svg width="33" height="32" viewBox="0 0 33 32" fill="none" xmlns="http://www.w3.org/2000/svg">
<rect x="0.199219" width="32" height="32" rx="16" fill="#D5EDFF"/>
<path d="M18.2689 22.0423C18.9537 22.0423 19.3155 22.853 18.8587 23.3628C18.5617 23.6946 18.1981 23.96 17.7916 24.1417C17.3851 24.3234 16.9448 24.4173 16.4996 24.4173C16.0543 24.4173 15.614 24.3234 15.2075 24.1417C14.801 23.96 14.4374 23.6946 14.1404 23.3628C13.7034 22.8751 14.0153 22.1128 14.6423 22.0479L14.7294 22.0431L18.2689 22.0423ZM16.4996 8.58398C17.5746 8.58398 18.4835 9.29886 18.7756 10.2789L18.812 10.4143L18.8183 10.4484C19.6912 10.9405 20.435 11.6326 20.9887 12.4677C21.5425 13.3029 21.8904 14.2574 22.004 15.253L22.0262 15.4802L22.0412 15.709V18.0294L22.0578 18.137C22.1662 18.7203 22.489 19.242 22.9627 19.5992L23.0949 19.6919L23.2232 19.7702C23.904 20.1558 23.6665 21.1683 22.9247 21.2459L22.8329 21.2507H10.1662C9.35238 21.2507 9.06818 20.1708 9.77593 19.7702C10.0776 19.5995 10.3382 19.3649 10.5395 19.0827C10.7408 18.8006 10.878 18.4778 10.9413 18.137L10.9579 18.0238L10.9587 15.6726C11.0069 14.6386 11.3079 13.6321 11.8353 12.7414C12.3626 11.8507 13.1003 11.1028 13.9836 10.5632L14.18 10.4476L14.1879 10.4135C14.2996 9.93997 14.554 9.51214 14.9167 9.1879C15.2795 8.86366 15.7331 8.65866 16.2161 8.60061L16.3602 8.58715L16.4996 8.58398Z" fill="#00426E"/>
</svg>
