<svg width="60" height="78" viewBox="0 0 60 78" fill="none" xmlns="http://www.w3.org/2000/svg">
<path d="M59.121 20.379L39.621 0.879C39.057 0.315 38.295 0 37.5 0H6C2.685 0 0 2.685 0 6V72C0 75.315 2.685 78 6 78H54C57.315 78 60 75.315 60 72V22.5C60 21.705 59.685 20.943 59.121 20.379ZM39 57H15C13.344 57 12 55.656 12 54C12 52.344 13.344 51 15 51H39C40.656 51 42 52.344 42 54C42 55.656 40.656 57 39 57ZM45 45H15C13.344 45 12 43.656 12 42C12 40.344 13.344 39 15 39H45C46.656 39 48 40.344 48 42C48 43.656 46.656 45 45 45ZM39 24C37.344 24 36 22.656 36 21V5.712L54.288 24H39Z" fill="#00426E"/>
</svg>
