<svg width="23" height="23" viewBox="0 0 23 23" fill="none" xmlns="http://www.w3.org/2000/svg">
<path d="M20.1244 12.4586H18.2077C17.9362 12.4586 17.7087 12.3666 17.5254 12.1826C17.342 11.9986 17.25 11.7712 17.2494 11.5003C17.2487 11.2294 17.3407 11.002 17.5254 10.818C17.71 10.634 17.9374 10.542 18.2077 10.542H20.1244C20.3959 10.542 20.6236 10.634 20.8076 10.818C20.9916 11.002 21.0833 11.2294 21.0827 11.5003C21.082 11.7712 20.99 11.999 20.8067 12.1836C20.6233 12.3682 20.3959 12.4599 20.1244 12.4586ZM15.9077 16.1003C16.0674 15.8767 16.275 15.7489 16.5306 15.717C16.7862 15.685 17.0257 15.7489 17.2494 15.9086L18.7827 17.0586C19.0063 17.2184 19.1341 17.426 19.166 17.6816C19.198 17.9371 19.1341 18.1767 18.9743 18.4003C18.8146 18.6239 18.607 18.7517 18.3514 18.7836C18.0959 18.8156 17.8563 18.7517 17.6327 18.592L16.0993 17.442C15.8757 17.2822 15.748 17.0746 15.716 16.8191C15.6841 16.5635 15.748 16.3239 15.9077 16.1003ZM18.7827 5.94197L17.2494 7.09197C17.0257 7.25169 16.7862 7.31558 16.5306 7.28364C16.275 7.25169 16.0674 7.12391 15.9077 6.9003C15.748 6.67669 15.6841 6.43711 15.716 6.18155C15.748 5.926 15.8757 5.71836 16.0993 5.55864L17.6327 4.40864C17.8563 4.24891 18.0959 4.18503 18.3514 4.21697C18.607 4.24891 18.8146 4.37669 18.9743 4.6003C19.1341 4.82392 19.198 5.0635 19.166 5.31905C19.1341 5.57461 19.0063 5.78225 18.7827 5.94197ZM4.79102 14.3753H3.83268C3.3056 14.3753 2.85454 14.1878 2.47952 13.8128C2.10449 13.4377 1.91665 12.9864 1.91602 12.4586V10.542C1.91602 10.0149 2.10385 9.56383 2.47952 9.1888C2.85518 8.81378 3.30624 8.62594 3.83268 8.6253H7.66602L10.9962 6.6128C11.3157 6.42114 11.6393 6.42114 11.967 6.6128C12.2948 6.80447 12.4583 7.08398 12.4577 7.45135V15.5493C12.4577 15.9166 12.2938 16.1961 11.9661 16.3878C11.6383 16.5795 11.315 16.5795 10.9962 16.3878L7.66602 14.3753H6.70768V17.2503C6.70768 17.5218 6.61568 17.7496 6.43168 17.9336C6.24768 18.1176 6.02024 18.2093 5.74935 18.2086C5.47846 18.208 5.25102 18.116 5.06702 17.9326C4.88302 17.7493 4.79102 17.5218 4.79102 17.2503V14.3753ZM13.416 14.7107V8.28989C13.8473 8.67322 14.1948 9.14057 14.4587 9.69193C14.7225 10.2433 14.8542 10.8461 14.8535 11.5003C14.8529 12.1545 14.7209 12.7576 14.4577 13.3096C14.1945 13.8616 13.8473 14.3287 13.416 14.7107Z" fill="#414141"/>
</svg>
