<svg width="21" height="21" viewBox="0 0 21 21" fill="none" xmlns="http://www.w3.org/2000/svg">
<path d="M12.25 7.875C12.0021 7.875 11.7944 7.791 11.627 7.623C11.4596 7.455 11.3756 7.24733 11.375 7V3.5C11.375 3.25208 11.459 3.04442 11.627 2.877C11.795 2.70958 12.0027 2.62558 12.25 2.625H17.5C17.7479 2.625 17.9559 2.709 18.1239 2.877C18.2919 3.045 18.3756 3.25267 18.375 3.5V7C18.375 7.24792 18.291 7.45588 18.123 7.62388C17.955 7.79188 17.7473 7.87558 17.5 7.875H12.25ZM3.5 11.375C3.25208 11.375 3.04442 11.291 2.877 11.123C2.70958 10.955 2.62558 10.7473 2.625 10.5V3.5C2.625 3.25208 2.709 3.04442 2.877 2.877C3.045 2.70958 3.25267 2.62558 3.5 2.625H8.75C8.99792 2.625 9.20588 2.709 9.37388 2.877C9.54188 3.045 9.62558 3.25267 9.625 3.5V10.5C9.625 10.7479 9.541 10.9559 9.373 11.1239C9.205 11.2919 8.99733 11.3756 8.75 11.375H3.5ZM12.25 18.375C12.0021 18.375 11.7944 18.291 11.627 18.123C11.4596 17.955 11.3756 17.7473 11.375 17.5V10.5C11.375 10.2521 11.459 10.0444 11.627 9.877C11.795 9.70958 12.0027 9.62558 12.25 9.625H17.5C17.7479 9.625 17.9559 9.709 18.1239 9.877C18.2919 10.045 18.3756 10.2527 18.375 10.5V17.5C18.375 17.7479 18.291 17.9559 18.123 18.1239C17.955 18.2919 17.7473 18.3756 17.5 18.375H12.25ZM3.5 18.375C3.25208 18.375 3.04442 18.291 2.877 18.123C2.70958 17.955 2.62558 17.7473 2.625 17.5V14C2.625 13.7521 2.709 13.5444 2.877 13.377C3.045 13.2096 3.25267 13.1256 3.5 13.125H8.75C8.99792 13.125 9.20588 13.209 9.37388 13.377C9.54188 13.545 9.62558 13.7527 9.625 14V17.5C9.625 17.7479 9.541 17.9559 9.373 18.1239C9.205 18.2919 8.99733 18.3756 8.75 18.375H3.5Z" fill="#414141"/>
</svg>
