<svg width="23" height="23" viewBox="0 0 23 23" fill="none" xmlns="http://www.w3.org/2000/svg">
<path fill-rule="evenodd" clip-rule="evenodd" d="M7.66602 3.83642C6.64935 3.83642 5.67433 4.24029 4.95544 4.95918C4.23655 5.67807 3.83268 6.65309 3.83268 7.66975C3.83268 8.68642 4.23655 9.66144 4.95544 10.3803C5.67433 11.0992 6.64935 11.5031 7.66602 11.5031C8.68268 11.5031 9.6577 11.0992 10.3766 10.3803C11.0955 9.66144 11.4993 8.68642 11.4993 7.66975C11.4993 6.65309 11.0955 5.67807 10.3766 4.95918C9.6577 4.24029 8.68268 3.83642 7.66602 3.83642ZM5.74935 12.4614C4.73269 12.4614 3.75766 12.8653 3.03877 13.5842C2.31988 14.3031 1.91602 15.2781 1.91602 16.2948V17.2531C1.91602 17.7614 2.11795 18.2489 2.47739 18.6084C2.83684 18.9678 3.32435 19.1698 3.83268 19.1698H11.4993C12.0077 19.1698 12.4952 18.9678 12.8546 18.6084C13.2141 18.2489 13.416 17.7614 13.416 17.2531V16.2948C13.416 15.2781 13.0121 14.3031 12.2933 13.5842C11.5744 12.8653 10.5993 12.4614 9.58268 12.4614H5.74935ZM12.6973 10.4537C13.1553 9.62954 13.416 8.68079 13.416 7.66975C13.4162 6.69555 13.1689 5.73726 12.6973 4.88484C13.2414 4.36995 13.9245 4.0258 14.6621 3.8949C15.3998 3.76401 16.1596 3.85212 16.8477 4.14834C17.5357 4.44456 18.122 4.93591 18.5338 5.56166C18.9457 6.18741 19.1652 6.92013 19.1652 7.66927C19.1652 8.41841 18.9457 9.15114 18.5338 9.77689C18.122 10.4026 17.5357 10.894 16.8477 11.1902C16.1596 11.4864 15.3998 11.5745 14.6621 11.4436C13.9245 11.3127 13.2414 10.9686 12.6973 10.4537ZM14.8209 19.1698C15.1468 18.6063 15.3336 17.9517 15.3336 17.2531V16.2948C15.3354 14.88 14.8138 13.5147 13.8693 12.4614H17.2493C18.266 12.4614 19.241 12.8653 19.9599 13.5842C20.6788 14.3031 21.0827 15.2781 21.0827 16.2948V17.2531C21.0827 17.7614 20.8807 18.2489 20.5213 18.6084C20.1619 18.9678 19.6743 19.1698 19.166 19.1698H14.8209Z" fill="#00426E"/>
</svg>
