<svg width="17" height="16" viewBox="0 0 17 16" fill="none" xmlns="http://www.w3.org/2000/svg">
<rect x="0.980469" width="16" height="16" rx="1" fill="#00426E"/>
<g clip-path="url(#clip0_2992_329)">
<path d="M4.39184 14.309C3.98545 14.309 3.63768 14.1644 3.34853 13.8753C3.05938 13.5861 2.91456 13.2381 2.91406 12.8312V11.3534C2.91406 11.1441 2.985 10.9687 3.12686 10.8273C3.26873 10.686 3.44409 10.615 3.65295 10.6145C3.86181 10.614 4.03742 10.685 4.17978 10.8273C4.32214 10.9697 4.39283 11.1451 4.39184 11.3534V12.8312H13.2585V11.3534C13.2585 11.1441 13.3294 10.9687 13.4713 10.8273C13.6132 10.686 13.7885 10.615 13.9974 10.6145C14.2063 10.614 14.3819 10.685 14.5242 10.8273C14.6666 10.9697 14.7373 11.1451 14.7363 11.3534V12.8312C14.7363 13.2376 14.5917 13.5856 14.3026 13.8753C14.0134 14.1649 13.6654 14.3095 13.2585 14.309H4.39184ZM8.08629 5.33149L6.70087 6.7169C6.55309 6.86468 6.37773 6.93561 6.17478 6.9297C5.97183 6.92379 5.79622 6.8467 5.64795 6.69843C5.51249 6.55065 5.44156 6.37825 5.43515 6.18121C5.42875 5.98417 5.49968 5.81176 5.64795 5.66399L8.30795 3.00399C8.38184 2.9301 8.46189 2.87788 8.54809 2.84734C8.63429 2.8168 8.72666 2.80129 8.82517 2.80079C8.92369 2.8003 9.01605 2.81582 9.10226 2.84734C9.18846 2.87887 9.26851 2.93108 9.3424 3.00399L12.0024 5.66399C12.1502 5.81176 12.2211 5.98417 12.2152 6.18121C12.2093 6.37825 12.1384 6.55065 12.0024 6.69843C11.8546 6.84621 11.6793 6.9233 11.4763 6.9297C11.2734 6.93611 11.0977 6.86517 10.9495 6.7169L9.56406 5.33149V10.6145C9.56406 10.8239 9.49313 10.9995 9.35126 11.1414C9.2094 11.2832 9.03403 11.3539 8.82517 11.3534C8.61631 11.3529 8.44095 11.282 8.29909 11.1406C8.15722 10.9993 8.08629 10.8239 8.08629 10.6145V5.33149Z" fill="white"/>
</g>
<defs>
<clipPath id="clip0_2992_329">
<rect width="14" height="14" fill="white" transform="translate(1.98047)"/>
</clipPath>
</defs>
</svg>
