<svg width="24" height="24" viewBox="0 0 24 24" fill="none" xmlns="http://www.w3.org/2000/svg">
<path d="M4 20C3.45 20 2.97933 19.8043 2.588 19.413C2.19667 19.0217 2.00067 18.5507 2 18V6C2 5.45 2.196 4.97933 2.588 4.588C2.98 4.19667 3.45067 4.00067 4 4H10L12 6H20C20.55 6 21.021 6.196 21.413 6.588C21.805 6.98 22.0007 7.45067 22 8V18C22 18.55 21.8043 19.021 21.413 19.413C21.0217 19.805 20.5507 20.0007 20 20H4Z" fill="#414141"/>
<path d="M8.7 13.7304H9.36964C9.34821 13.9857 9.27679 14.2134 9.15536 14.4134C9.03393 14.6116 8.86339 14.7679 8.64375 14.8821C8.42411 14.9964 8.15714 15.0536 7.84286 15.0536C7.60179 15.0536 7.38482 15.0107 7.19196 14.925C6.99911 14.8375 6.83393 14.7143 6.69643 14.5554C6.55893 14.3946 6.45357 14.2009 6.38036 13.9741C6.30893 13.7473 6.27321 13.4937 6.27321 13.2134V12.8893C6.27321 12.6089 6.30982 12.3554 6.38304 12.1286C6.45804 11.9018 6.56518 11.708 6.70446 11.5473C6.84375 11.3848 7.01071 11.2607 7.20536 11.175C7.40179 11.0893 7.62232 11.0464 7.86696 11.0464C8.17768 11.0464 8.44018 11.1036 8.65446 11.2179C8.86875 11.3321 9.03482 11.4902 9.15268 11.692C9.27232 11.8937 9.34554 12.125 9.37232 12.3857H8.70268C8.68482 12.2179 8.64554 12.0741 8.58482 11.9545C8.52589 11.8348 8.43839 11.7437 8.32232 11.6812C8.20625 11.617 8.05446 11.5848 7.86696 11.5848C7.71339 11.5848 7.57946 11.6134 7.46518 11.6705C7.35089 11.7277 7.25536 11.8116 7.17857 11.9223C7.10179 12.033 7.04375 12.1696 7.00446 12.3321C6.96696 12.4929 6.94821 12.6768 6.94821 12.8839V13.2134C6.94821 13.4098 6.96518 13.5884 6.99911 13.7491C7.03482 13.908 7.08839 14.0446 7.15982 14.1589C7.23304 14.2732 7.32589 14.3616 7.43839 14.4241C7.55089 14.4866 7.68571 14.5179 7.84286 14.5179C8.03393 14.5179 8.18839 14.4875 8.30625 14.4268C8.42589 14.3661 8.51607 14.2777 8.57679 14.1616C8.63929 14.0437 8.68036 13.9 8.7 13.7304ZM10.2536 11.1H10.8536L11.9813 14.108L13.1063 11.1H13.7063L12.217 15H11.7402L10.2536 11.1ZM9.98036 11.1H10.5509L10.65 13.7036V15H9.98036V11.1ZM13.4089 11.1H13.9821V15H13.3098V13.7036L13.4089 11.1ZM16.8321 13.9955C16.8321 13.9152 16.8196 13.8437 16.7946 13.7812C16.7714 13.7187 16.7295 13.6616 16.6687 13.6098C16.608 13.558 16.5223 13.508 16.4116 13.4598C16.3027 13.4098 16.1634 13.3589 15.9937 13.3071C15.808 13.25 15.6366 13.1866 15.4795 13.117C15.3241 13.0455 15.1884 12.9634 15.0723 12.8705C14.9562 12.7759 14.8661 12.6679 14.8018 12.5464C14.7375 12.4232 14.7054 12.2812 14.7054 12.1205C14.7054 11.9616 14.7384 11.817 14.8045 11.6866C14.8723 11.5562 14.9679 11.4437 15.0911 11.3491C15.2161 11.2527 15.3634 11.1786 15.533 11.1268C15.7027 11.0732 15.8902 11.0464 16.0955 11.0464C16.3848 11.0464 16.6339 11.1 16.8429 11.2071C17.0536 11.3143 17.2152 11.458 17.3277 11.6384C17.442 11.8187 17.4991 12.0179 17.4991 12.2357H16.8321C16.8321 12.1071 16.8045 11.9937 16.7491 11.8955C16.6955 11.7955 16.6134 11.717 16.5027 11.6598C16.3937 11.6027 16.2554 11.5741 16.0875 11.5741C15.9286 11.5741 15.7964 11.5982 15.6911 11.6464C15.5857 11.6946 15.5071 11.7598 15.4554 11.842C15.4036 11.9241 15.3777 12.017 15.3777 12.1205C15.3777 12.1937 15.3946 12.2607 15.4286 12.3214C15.4625 12.3804 15.5143 12.4357 15.5839 12.4875C15.6536 12.5375 15.7411 12.5848 15.8464 12.6295C15.9518 12.6741 16.0759 12.717 16.2187 12.758C16.4348 12.8223 16.6232 12.8937 16.7839 12.9723C16.9446 13.0491 17.0786 13.1366 17.1857 13.2348C17.2929 13.333 17.3732 13.4446 17.4268 13.5696C17.4804 13.6929 17.5071 13.833 17.5071 13.9902C17.5071 14.1545 17.4741 14.3027 17.408 14.4348C17.342 14.5652 17.2473 14.6768 17.1241 14.7696C17.0027 14.8607 16.8562 14.9312 16.6848 14.9812C16.5152 15.0295 16.3259 15.0536 16.117 15.0536C15.9295 15.0536 15.7446 15.0286 15.5625 14.9786C15.3821 14.9286 15.2179 14.8527 15.0696 14.7509C14.9214 14.6473 14.8036 14.5187 14.7161 14.3652C14.6286 14.2098 14.5848 14.0286 14.5848 13.8214H15.2571C15.2571 13.9482 15.2786 14.0562 15.3214 14.1455C15.3661 14.2348 15.4277 14.308 15.5062 14.3652C15.5848 14.4205 15.6759 14.4616 15.7795 14.4884C15.8848 14.5152 15.9973 14.5286 16.117 14.5286C16.2741 14.5286 16.4054 14.5062 16.5107 14.4616C16.6179 14.417 16.6982 14.3545 16.7518 14.2741C16.8054 14.1937 16.8321 14.1009 16.8321 13.9955Z" fill="white"/>
</svg>
