<svg width="32" height="32" viewBox="0 0 32 32" fill="none" xmlns="http://www.w3.org/2000/svg">
<path d="M8 25.875V21.8906L20.375 9.53906C20.5625 9.36719 20.7697 9.23438 20.9966 9.14063C21.2234 9.04688 21.4616 9 21.7109 9C21.9603 9 22.2025 9.04688 22.4375 9.14063C22.6725 9.23438 22.8756 9.375 23.0469 9.5625L24.3359 10.875C24.5234 11.0469 24.6603 11.25 24.7466 11.4844C24.8328 11.7188 24.8756 11.9531 24.875 12.1875C24.875 12.4375 24.8322 12.6759 24.7466 12.9028C24.6609 13.1297 24.5241 13.3366 24.3359 13.5234L11.9844 25.875H8ZM21.6875 13.5L23 12.1875L21.6875 10.875L20.375 12.1875L21.6875 13.5Z" fill="#777777"/>
</svg>
