<svg width="22" height="22" viewBox="0 0 22 22" fill="none" xmlns="http://www.w3.org/2000/svg">
<path fill-rule="evenodd" clip-rule="evenodd" d="M12.9049 2.96154C12.9049 2.90543 12.8826 2.85163 12.8429 2.81196C12.8033 2.77229 12.7495 2.75 12.6934 2.75H6.77028C6.15314 2.75 5.56128 2.99516 5.1249 3.43154C4.68852 3.86792 4.44336 4.45978 4.44336 5.07692V16.9231C4.44336 17.5402 4.68852 18.1321 5.1249 18.5685C5.56128 19.0048 6.15314 19.25 6.77028 19.25H15.2318C15.849 19.25 16.4408 19.0048 16.8772 18.5685C17.3136 18.1321 17.5587 17.5402 17.5587 16.9231V8.58592C17.5587 8.52982 17.5365 8.47601 17.4968 8.43634C17.4571 8.39667 17.4033 8.37438 17.3472 8.37438H13.5395C13.3712 8.37438 13.2098 8.30752 13.0908 8.18851C12.9718 8.0695 12.9049 7.90808 12.9049 7.73977V2.96154ZM13.5395 11.2115C13.7078 11.2115 13.8692 11.2784 13.9883 11.3974C14.1073 11.5164 14.1741 11.6778 14.1741 11.8462C14.1741 12.0145 14.1073 12.1759 13.9883 12.2949C13.8692 12.4139 13.7078 12.4808 13.5395 12.4808H8.46259C8.29428 12.4808 8.13286 12.4139 8.01385 12.2949C7.89484 12.1759 7.82797 12.0145 7.82797 11.8462C7.82797 11.6778 7.89484 11.5164 8.01385 11.3974C8.13286 11.2784 8.29428 11.2115 8.46259 11.2115H13.5395ZM13.5395 14.5962C13.7078 14.5962 13.8692 14.663 13.9883 14.782C14.1073 14.901 14.1741 15.0625 14.1741 15.2308C14.1741 15.3991 14.1073 15.5605 13.9883 15.6795C13.8692 15.7985 13.7078 15.8654 13.5395 15.8654H8.46259C8.29428 15.8654 8.13286 15.7985 8.01385 15.6795C7.89484 15.5605 7.82797 15.3991 7.82797 15.2308C7.82797 15.0625 7.89484 14.901 8.01385 14.782C8.13286 14.663 8.29428 14.5962 8.46259 14.5962H13.5395Z" fill="#414141"/>
<path d="M14.1719 3.23509C14.1719 3.0794 14.3352 2.9804 14.4562 3.07771C14.5588 3.16063 14.65 3.25709 14.7295 3.36709L17.279 6.9184C17.3365 6.99963 17.2739 7.10455 17.174 7.10455H14.3834C14.3273 7.10455 14.2735 7.08227 14.2338 7.0426C14.1942 7.00292 14.1719 6.94912 14.1719 6.89302V3.23509Z" fill="#414141"/>
</svg>
