<svg width="16" height="16" viewBox="0 0 16 16" fill="none" xmlns="http://www.w3.org/2000/svg">
<rect width="16" height="16" rx="1" fill="#414141"/>
<g clip-path="url(#clip0_534_3045)">
<path d="M3.41137 14.309C3.00498 14.309 2.65721 14.1644 2.36806 13.8753C2.07891 13.5861 1.93409 13.2381 1.93359 12.8312V11.3534C1.93359 11.1441 2.00453 10.9687 2.14639 10.8273C2.28826 10.686 2.46362 10.615 2.67248 10.6145C2.88134 10.614 3.05695 10.685 3.19931 10.8273C3.34167 10.9697 3.41236 11.1451 3.41137 11.3534V12.8312H12.278V11.3534C12.278 11.1441 12.349 10.9687 12.4908 10.8273C12.6327 10.686 12.8081 10.615 13.0169 10.6145C13.2258 10.614 13.4014 10.685 13.5438 10.8273C13.6861 10.9697 13.7568 11.1451 13.7558 11.3534V12.8312C13.7558 13.2376 13.6112 13.5856 13.3221 13.8753C13.0329 14.1649 12.6849 14.3095 12.278 14.309H3.41137ZM7.10582 5.33149L5.7204 6.7169C5.57262 6.86468 5.39726 6.93561 5.19431 6.9297C4.99136 6.92379 4.81575 6.8467 4.66748 6.69843C4.53202 6.55065 4.46109 6.37825 4.45468 6.18121C4.44828 5.98417 4.51921 5.81176 4.66748 5.66399L7.32748 3.00399C7.40137 2.9301 7.48142 2.87788 7.56762 2.84734C7.65383 2.8168 7.74619 2.80129 7.84471 2.80079C7.94322 2.8003 8.03558 2.81582 8.12179 2.84734C8.20799 2.87887 8.28804 2.93108 8.36193 3.00399L11.0219 5.66399C11.1697 5.81176 11.2406 5.98417 11.2347 6.18121C11.2288 6.37825 11.1579 6.55065 11.0219 6.69843C10.8741 6.84621 10.6988 6.9233 10.4958 6.9297C10.2929 6.93611 10.1173 6.86517 9.96901 6.7169L8.58359 5.33149V10.6145C8.58359 10.8239 8.51266 10.9995 8.37079 11.1414C8.22893 11.2832 8.05356 11.3539 7.84471 11.3534C7.63585 11.3529 7.46048 11.282 7.31862 11.1406C7.17675 10.9993 7.10582 10.8239 7.10582 10.6145V5.33149Z" fill="white"/>
</g>
<defs>
<clipPath id="clip0_534_3045">
<rect width="14" height="14" fill="white" transform="translate(1)"/>
</clipPath>
</defs>
</svg>
