<svg width="32" height="32" viewBox="0 0 32 32" fill="none" xmlns="http://www.w3.org/2000/svg">
<rect x="-0.000976562" width="32" height="32" rx="16" fill="#D5EDFF"/>
<g clip-path="url(#clip0_534_3092)">
<g clip-path="url(#clip1_534_3092)">
<path d="M15.999 16C18.2084 16 19.999 14.2094 19.999 12C19.999 9.79063 18.2084 8 15.999 8C13.7896 8 11.999 9.79063 11.999 12C11.999 14.2094 13.7896 16 15.999 16ZM18.799 17H18.2771C17.5834 17.3188 16.8115 17.5 15.999 17.5C15.1865 17.5 14.4178 17.3188 13.7209 17H13.199C10.8803 17 8.99902 18.8813 8.99902 21.2V22.5C8.99902 23.3281 9.6709 24 10.499 24H21.499C22.3271 24 22.999 23.3281 22.999 22.5V21.2C22.999 18.8813 21.1178 17 18.799 17Z" fill="#00426E"/>
</g>
</g>
<defs>
<clipPath id="clip0_534_3092">
<rect width="16" height="16" fill="white" transform="translate(7.99902 8)"/>
</clipPath>
<clipPath id="clip1_534_3092">
<rect width="14" height="16" fill="white" transform="translate(8.99902 8)"/>
</clipPath>
</defs>
</svg>
