<svg width="16" height="18" viewBox="0 0 16 18" fill="none" xmlns="http://www.w3.org/2000/svg">
<g clip-path="url(#clip0_2954_307)">
<path d="M8.48047 8.57143C10.8477 8.57143 12.7662 6.6529 12.7662 4.28571C12.7662 1.91853 10.8477 0 8.48047 0C6.11328 0 4.19475 1.91853 4.19475 4.28571C4.19475 6.6529 6.11328 8.57143 8.48047 8.57143ZM11.6881 9.66295L10.0876 16.0714L9.01618 11.5179L10.0876 9.64286H6.87333L7.94475 11.5179L6.87333 16.0714L5.27288 9.66295C2.8856 9.77679 0.980469 11.7288 0.980469 14.1429V15.5357C0.980469 16.423 1.70033 17.1429 2.58761 17.1429H14.3733C15.2606 17.1429 15.9805 16.423 15.9805 15.5357V14.1429C15.9805 11.7288 14.0753 9.77679 11.6881 9.66295Z" fill="#414141"/>
</g>
<defs>
<clipPath id="clip0_2954_307">
<rect width="15" height="17.1429" fill="white" transform="translate(0.980469)"/>
</clipPath>
</defs>
</svg>
