<svg width="23" height="23" viewBox="0 0 23 23" fill="none" xmlns="http://www.w3.org/2000/svg">
<path fill-rule="evenodd" clip-rule="evenodd" d="M7.66602 3.83447C6.64935 3.83447 5.67433 4.23833 4.95544 4.95722C4.23655 5.67611 3.83268 6.65114 3.83268 7.6678C3.83268 8.68446 4.23655 9.65949 4.95544 10.3784C5.67433 11.0973 6.64935 11.5011 7.66602 11.5011C8.68268 11.5011 9.6577 11.0973 10.3766 10.3784C11.0955 9.65949 11.4993 8.68446 11.4993 7.6678C11.4993 6.65114 11.0955 5.67611 10.3766 4.95722C9.6577 4.23833 8.68268 3.83447 7.66602 3.83447ZM5.74935 12.4595C4.73269 12.4595 3.75766 12.8633 3.03877 13.5822C2.31988 14.3011 1.91602 15.2761 1.91602 16.2928V17.2511C1.91602 17.7595 2.11795 18.247 2.47739 18.6064C2.83684 18.9659 3.32435 19.1678 3.83268 19.1678H11.4993C12.0077 19.1678 12.4952 18.9659 12.8546 18.6064C13.2141 18.247 13.416 17.7595 13.416 17.2511V16.2928C13.416 15.2761 13.0121 14.3011 12.2933 13.5822C11.5744 12.8633 10.5993 12.4595 9.58268 12.4595H5.74935ZM12.6973 10.4518C13.1553 9.62759 13.416 8.67884 13.416 7.6678C13.4162 6.69359 13.1689 5.73531 12.6973 4.88288C13.2414 4.368 13.9245 4.02384 14.6621 3.89295C15.3998 3.76206 16.1596 3.85017 16.8477 4.14639C17.5357 4.44261 18.122 4.93396 18.5338 5.5597C18.9457 6.18545 19.1652 6.91818 19.1652 7.66732C19.1652 8.41646 18.9457 9.14919 18.5338 9.77493C18.122 10.4007 17.5357 10.892 16.8477 11.1883C16.1596 11.4845 15.3998 11.5726 14.6621 11.4417C13.9245 11.3108 13.2414 10.9666 12.6973 10.4518ZM14.8209 19.1678C15.1468 18.6043 15.3336 17.9498 15.3336 17.2511V16.2928C15.3354 14.8781 14.8138 13.5127 13.8693 12.4595H17.2493C18.266 12.4595 19.241 12.8633 19.9599 13.5822C20.6788 14.3011 21.0827 15.2761 21.0827 16.2928V17.2511C21.0827 17.7595 20.8807 18.247 20.5213 18.6064C20.1619 18.9659 19.6743 19.1678 19.166 19.1678H14.8209Z" fill="#414141"/>
</svg>
